<svg xmlns="http://www.w3.org/2000/svg" viewBox="0 0 556.05 544.18"><defs><style>.cls-1{fill:#4f5253;}.cls-2{fill:#fff;}.cls-3{fill:#d84b28;}.cls-4{fill:#0c9347;}</style></defs><g id="Layer_2" data-name="Layer 2"><g id="Layer_1-2" data-name="Layer 1"><rect class="cls-1" y="385.29" width="556.05" height="158.89"/><path class="cls-2" d="M108.46,516.56H88.54c-2.91,0-5-.42-6.23-1.28a4.23,4.23,0,0,1-1.87-3.72v-44.5H90.51c6.44,0,11.53,1.84,15.25,5.56s5.76,9.85,6,18.43h6V439.21h-6q-.44,11.4-6,17t-14.38,5.51h-11V421.79a5.68,5.68,0,0,1,1.56-4.4A6.64,6.64,0,0,1,86.62,416h25.23q12.11,0,19.63,7.12t11,25h5.83l-2.43-37.77H43.75V416H54.3c2.62,0,4.53.49,5.76,1.44a5.28,5.28,0,0,1,1.81,4.4V510.5A5.26,5.26,0,0,1,59.79,515c-1.39,1-3.81,1.55-7.23,1.55H43.75v5.68H150l2.17-41.72h-6.26q-5,36.06-37.42,36"/><path class="cls-2" d="M247.48,498.69,209,410.27H166.05V416h11c3.67,0,6.16.45,7.5,1.33a4.67,4.67,0,0,1,2,4.2v77.21q0,9.62-4.27,13.41t-16.21,4.46v5.68h48.62v-5.68c-6-.29-10.27-1.1-12.85-2.37a14,14,0,0,1-6-5.54c-1.4-2.39-2.09-6-2.09-10.86V416.41l45.88,105.83h5.87L288.12,416V511a4.65,4.65,0,0,1-2.27,4c-1.51,1-3.85,1.55-7,1.55h-11v5.68h59v-5.68H317c-3.84,0-6.54-.47-8.11-1.44A4.53,4.53,0,0,1,306.5,511V422.4q0-3.57,2-5c1.3-.95,3.85-1.44,7.62-1.44H326.8v-5.68H282.93Z"/><path class="cls-2" d="M420.82,464q-8.65-4.18-30.18-8.23-15.36-2.87-20.88-5.41a19.82,19.82,0,0,1-8.32-6.58,16.41,16.41,0,0,1-2.77-9.44q0-8.64,7.3-14.63t18.83-6a37.44,37.44,0,0,1,24.35,8.62q10.59,8.63,16,27.41h5.75L430.36,409H424l-7.84,9.77A56.16,56.16,0,0,0,401,410.43a47.54,47.54,0,0,0-15.41-2.5q-16.92,0-27.76,9.42T347,441.55q0,14.15,10.89,21.88,7.74,5.42,29.09,9.84Q406.41,477.2,413,480c4.41,1.85,7.63,4.11,9.67,6.82a15.16,15.16,0,0,1,3,9.42q0,9.46-8.14,16.08t-21,6.64a44.17,44.17,0,0,1-28.67-10.38q-12.72-10.37-16.37-28.32h-6.28V523.6h6.28l9.83-10.43Q376.1,524.36,396,524.36q18.56,0,30.27-9.94T438,489.31a25.72,25.72,0,0,0-4.27-14.79c-2.84-4.22-7.14-7.72-12.94-10.49"/><path class="cls-2" d="M495.46,417.43c1.2-1,4.05-1.48,8.59-1.48h10.19v-5.68H454.82V416h10.12q6.49,0,9,1.75c1,.75,1.57,2.75,1.57,6v84.79c0,3.38-.59,5.57-1.74,6.57s-3.73,1.52-7.67,1.52H454.82v5.68h59.42v-5.68H502.83c-3.67,0-6.19-.57-7.59-1.73-1-.88-1.55-3-1.55-6.36V423.68c0-3.17.59-5.27,1.77-6.25"/><polygon class="cls-3" points="510.06 350.55 484.7 375.9 459.31 350.55 484.7 325.18 510.06 350.55"/><path class="cls-4" d="M98.74,349.24s8.24,2.08,5.12,17c-.5,2.57.52,17,12.37,14.42s9.29-6.14,6.7-20.6a15.24,15.24,0,0,1,0-18c0-2.06,24.23-67.49,16.52-83.47.47,1-2.57-16.46,12.89-2.6-.54,1.06,2.58,1.06,1.52,33.51,0,.5-1.52,15.45,4.62,20.61,0,1.55-1.49,34.05-1.49,34.05s-2.62,23.66,11.78,17c-.49,0-.49,21.11,8.28,19,1,1.06,13.42,2.61,7.72-23.68,0-1,3.1-17,7.22-31.43,1.06-1,13.39-44.86,9.77-74.23.57,1.06,11.89-19.05,12.39-31.4.5,0,7.25-.51,7.25-.51s8.73,6.2,19.53,41.2c0-1,7.75,29.38,5.66,42.29,0,2,9.8,20.1,9.8,30.89s2.1,29.4.51,34c1.05,1.08,8.25,8.81,7.75,12.47-.5,1,7.75,14.92,13.92,3.54.53-1,0-13.36-2-17-.55.49-3.12-8.19,3.05-18,2-3.6,12.4-32,5.69-59.28.52,0-3.65-7.71,1-22.65,4.66-12.93,18-50.52,12.37-69.1,0,1.06-3.65-5.16-2-24.7.5.52,17.54-6.7,22.12,16.48,0,.51.53,34-4.58,47.44,0,1.51-4.13,39.12,3.57,58.19,1,1.11,13.37,37.64,13.37,37.64s0,28.35,7.21,29.89c2.09-1.54,6.18,5.64,9.31-22.7-.54-1,6.17-11.83,0-22.17,1,0-8.22-50-8.22-50l12.84-26.77,4.15-.51a836.69,836.69,0,0,1,.5,114.9c1,2.07,4.64,8.76,4.64,8.76l3.64,6.19h20.6L376,354.36s-2.62-18,4.1-30.88c1-1,7.24-52.59,6.23-72.7V210.61s4.61-17,10.27-18.58c3.13-.47,11.88,14.45,11.88,14.45L429,195.65l-4.63-15s6.18-6.68,19.54-5.65c.55,0-9.25-58.74-46.9-96.87-.49.54,0-11.89,0-11.89S371.84,57,363.59,55.47c-1-.45-1-15.44-1-15.44s12.91-24.72,8.77-30.36C368.74,5.5,352.77-8.91,326.51,8.1c1.55.52-12.35,12.35,1.55,24.23.48,1,3,4.61,3,4.61l-.47,18.53S296.62,73,293,79.71c-1,2-23.73-6.16-23.73-6.16V64.77S276.53,62.2,272.4,54c0-1.55.5-25.76-6.2-31.41-1.55.49-11.86-8.28-23.69,3.59-2.07,1-18,25.76-18,25.76s-4.15,12.39,6.18,17c.52,0,1.06,5.69,2,8.27,0,.5-4.12,6.67-16.47,5.14l-10.31-.54-.54-3.57s-13.39-.53-16-7.74c0-2.07-.45-10.28-.45-10.28l-1.56-8.78,3.1-6.15S195.6,19,179.08,15.31c-1,0-19.05-2.07-23.2,12.36-.46,1-1.51,14.93,5.2,24.74-.54-.51-2,3.06-4.09,4.63s-10.87,20.11-20.11,20.11c-.51,0-12.38,4.6-13.95-7.23,1-.49,1-10.8,1-10.8s11.85-19.09,9.3-26.79c0-1,2-14.44-19.09-13.93.55,0-17.52-1.56-19.07,19.06.52,1-1,8.79,5.16,16.5.53,0-1.53,11.87-1.53,11.87S85.33,74.07,76,76.12c-.46,0-27.8,10.33-30.87,44.31-.52,0-14.45,51.54-13.93,71.6.51,3.14,5.14,9.31,9.3,18.58-.57-1.54,0,7.76,0,7.76l-5.68,5.13,1,64.41,14.43.5.52-58.21a26.19,26.19,0,0,0,3.08-12.4c-.46-5.13,1.07-12.35,1.07-12.35l2-20.63s10.29,8.75,10.83,13.91c-1.07,5.71,0,83.5,12.86,116-1,0,5.68,17,0,29.91.55,3.11-3.09,9.26,2.57,12.36.54,0,7.27,4.12,15.5-7.74"/></g></g></svg>